<svg xmlns="http://www.w3.org/2000/svg" xmlns:xlink="http://www.w3.org/1999/xlink" version="1.1" xml:space="preserve" width="128" height="128" style=""><rect id="backgroundrect" width="100%" height="100%" x="0" y="0" fill="none" stroke="none" class="" style=""/><g class="currentLayer" style=""><title>Layer 1</title><g id="svg_1" class="" fill="#ffffff" fill-opacity="1"><g xmlns="http://www.w3.org/2000/svg" xmlns:xlink="http://www.w3.org/1999/xlink" id="svg_2" fill="#ffffff" fill-opacity="1"><ellipse cx="16.107208010910163" cy="48.29163913099139" rx="14.825161028942292" ry="21.200125389669473" id="svg_3" fill="#ffffff" fill-opacity="1"/><ellipse cx="45.75754776462673" cy="22.482178227132163" rx="14.825161028942292" ry="21.200125389669473" id="svg_4" fill="#ffffff" fill-opacity="1"/><path d="M105.0533343303029,86.08253832268943 c-12.431035323097376,-4.122380535012415 -14.825160644582796,-18.437407211564285 -22.240164170640885,-25.809477197568942 c-7.410157118524713,-7.372069986004653 -18.52781600007847,-7.372069986004653 -18.52781600007847,-7.372069986004653 s-11.117658881553755,0 -18.52781600007847,7.372069986004653 c-7.415003526058085,7.372069986004653 -9.804282440010132,21.68709666255653 -22.23531776310751,25.809477197568942 c-11.122505289087126,3.6932672395549817 -14.83000705211617,14.748961469711077 -14.83000705211617,23.96766507549322 c0,9.218703605782142 7.410157118524713,16.5907735917868 22.240164170640885,16.5907735917868 c14.825160644582796,0 24.091491848388717,-5.530257863928933 33.35297664466126,-5.530257863928933 c9.266331203805919,0 18.52781600007847,5.530257863928933 33.35782305219464,5.530257863928933 c14.825160644582796,0 22.23531776310751,-7.372069986004653 22.23531776310751,-16.5907735917868 C119.87849497488568,100.83149979240036 116.17099321185661,89.77098406454259 105.0533343303029,86.08253832268943 z" id="svg_5" fill="#ffffff" fill-opacity="1"/><ellipse cx="112.46349894224336" cy="48.29163913099139" rx="14.825161028942292" ry="21.200125389669473" id="svg_6" fill="#ffffff" fill-opacity="1"/><ellipse cx="82.81316011988638" cy="22.482178227132163" rx="14.825161028942292" ry="21.200125389669473" id="svg_7" fill="#ffffff" fill-opacity="1"/></g></g></g></svg>